<svg xmlns="http://www.w3.org/2000/svg" xmlns:xlink="http://www.w3.org/1999/xlink" version="1.1" x="0px" y="0px" viewBox="0 0 100 125" style="enable-background:new 0 0 100 100;" xml:space="preserve"><g><path d="M56.234,64.764c0,3.365-3.041,4.312-4.316,4.522v-8.819C53.449,60.857,56.234,61.793,56.234,64.764z M98.094,58.146   c2.541,2.541,2.541,6.661,0,9.203c-2.217,2.217-6.32,2.881-9.203,0l-5.394-5.395v20.959c0,2.396-1.942,4.338-4.339,4.338H20.842   c-2.396,0-4.338-1.941-4.338-4.338V61.955l-5.394,5.395c-2.541,2.541-6.662,2.541-9.203,0c-2.542-2.542-2.542-6.662,0-9.203   L15.41,44.643V20.533c0-0.829,0.673-1.502,1.502-1.502H29.43c0.829,0,1.501,0.673,1.501,1.502v8.587l14.467-14.466   c2.542-2.542,6.662-2.542,9.203,0L98.094,58.146z M62.492,63.949c0-2.442-0.488-7.853-10.574-9.813v-8.843   c1.65,0.633,2.673,1.84,3.064,3.618l6.463-0.745c-0.441-2.263-2-6.952-9.527-7.87v-2.238h-3.705v2.238   c-2.931,0.257-9.682,2.151-9.682,9.136c0,6.813,6.345,9.219,9.682,10.063v9.475c-0.919-0.392-3.067-1.13-4.038-5.02l-6.667,0.633   c1.185,8.023,7.758,9.497,10.705,9.814v3.562h3.705v-3.675C55.237,73.861,62.492,71.85,62.492,63.949z M44.917,49.16   c0,2.867,2.188,3.467,3.295,3.89v-7.824C47.207,45.527,44.917,46.293,44.917,49.16z"/></g><text x="0" y="115" fill="#000000" font-size="5px" font-weight="bold" font-family="'Helvetica Neue', Helvetica, Arial-Unicode, Arial, Sans-serif">Created by b farias</text><text x="0" y="120" fill="#000000" font-size="5px" font-weight="bold" font-family="'Helvetica Neue', Helvetica, Arial-Unicode, Arial, Sans-serif">from the Noun Project</text></svg>