<svg xmlns="http://www.w3.org/2000/svg" xmlns:xlink="http://www.w3.org/1999/xlink" version="1.1" x="0px" y="0px" viewBox="0 0 100 125" style="enable-background:new 0 0 100 100;" xml:space="preserve"><g><path d="M80.23,30.23C80.23,13.534,66.697,0,50,0C33.305,0,19.77,13.534,19.77,30.23C19.77,46.925,50,100,50,100   S80.23,46.925,80.23,30.23z M27.931,30.23c0-12.188,9.88-22.069,22.069-22.069s22.071,9.881,22.071,22.069   c0,12.191-9.882,22.069-22.071,22.069S27.931,42.421,27.931,30.23z M48.875,36.351c0,0.621-0.503,1.125-1.125,1.125   c-0.622,0-1.125-0.504-1.125-1.125s0.503-1.125,1.125-1.125C48.372,35.226,48.875,35.729,48.875,36.351z M67.4,35.413   c-0.803,0.802-2.287,1.042-3.33,0l-1.951-1.952v7.583c0,0.867-0.703,1.569-1.57,1.569h-6.206v-11.59c0-0.641-0.52-1.16-1.16-1.16   h-6.365c-0.641,0-1.16,0.519-1.16,1.16v11.59h-6.207c-0.867,0-1.569-0.703-1.569-1.569v-7.583l-1.952,1.952   c-0.919,0.919-2.41,0.919-3.33,0s-0.919-2.41,0-3.33l4.885-4.886v-8.723c0-0.3,0.243-0.543,0.543-0.543h4.529   c0.3,0,0.543,0.243,0.543,0.543v3.107l5.234-5.234c0.919-0.919,2.41-0.919,3.33,0L67.4,32.083   C68.32,33.002,68.32,34.493,67.4,35.413z"/></g><text x="0" y="115" fill="#000000" font-size="5px" font-weight="bold" font-family="'Helvetica Neue', Helvetica, Arial-Unicode, Arial, Sans-serif">Created by b farias</text><text x="0" y="120" fill="#000000" font-size="5px" font-weight="bold" font-family="'Helvetica Neue', Helvetica, Arial-Unicode, Arial, Sans-serif">from the Noun Project</text></svg>