<svg xmlns="http://www.w3.org/2000/svg" xmlns:xlink="http://www.w3.org/1999/xlink" version="1.1" x="0px" y="0px" viewBox="0 0 100 125" style="enable-background:new 0 0 100 100;" xml:space="preserve"><g><path d="M51.531,50c0,0.846-0.685,1.532-1.531,1.532S48.468,50.846,48.468,50c0-0.846,0.686-1.532,1.532-1.532   S51.531,49.154,51.531,50z M73.695,54.014L52.268,32.585c-1.252-1.252-3.283-1.252-4.535,0l-7.127,7.128v-4.231   c0-0.409-0.332-0.74-0.74-0.74h-6.167c-0.409,0-0.74,0.331-0.74,0.74V47.36l-6.653,6.653c-1.252,1.252-1.252,3.282,0,4.534   c1.252,1.252,3.283,1.252,4.535,0l2.658-2.657v10.326c0,1.18,0.957,2.137,2.137,2.137h8.453V52.57c0-0.873,0.707-1.58,1.58-1.58   h8.668c0.873,0,1.58,0.707,1.58,1.58v15.783h8.452c1.181,0,2.138-0.957,2.138-2.137V55.891l2.658,2.657   c1.419,1.42,3.441,1.093,4.533,0C74.947,57.296,74.947,55.266,73.695,54.014z M100,47.276v5.447h-7.461   c-1.352,21.34-18.475,38.463-39.815,39.815V100h-5.447v-7.462C25.938,91.186,8.815,74.063,7.463,52.724H0v-5.447h7.463   C8.815,25.938,25.938,8.815,47.276,7.462V0h5.447v7.462c21.341,1.352,38.464,18.475,39.815,39.814H100z M78.262,52.724v-5.447   h5.061c-1.317-16.268-14.33-29.28-30.599-30.598v5.06h-5.447v-5.06C31.01,17.997,17.998,31.01,16.68,47.276h5.058v5.447H16.68   c1.318,16.267,14.33,29.279,30.596,30.598v-5.06h5.447v5.061c16.269-1.318,29.281-14.331,30.599-30.599H78.262z"/></g><text x="0" y="115" fill="#000000" font-size="5px" font-weight="bold" font-family="'Helvetica Neue', Helvetica, Arial-Unicode, Arial, Sans-serif">Created by b farias</text><text x="0" y="120" fill="#000000" font-size="5px" font-weight="bold" font-family="'Helvetica Neue', Helvetica, Arial-Unicode, Arial, Sans-serif">from the Noun Project</text></svg>