<svg xmlns="http://www.w3.org/2000/svg" xmlns:xlink="http://www.w3.org/1999/xlink" version="1.1" x="0px" y="0px" viewBox="0 0 100 125" style="enable-background:new 0 0 100 100;" xml:space="preserve"><g><path d="M28.476,55.226c-1.138-1.138-1.138-2.981,0-4.118l6.043-6.044v-10.79c0-0.372,0.301-0.673,0.672-0.673h5.602   c0.372,0,0.672,0.301,0.672,0.673v3.843l6.475-6.475c1.138-1.138,2.982-1.138,4.119,0l19.466,19.466   c1.137,1.137,1.137,2.98,0,4.118c-0.992,0.993-2.83,1.29-4.119,0l-2.414-2.414v9.38c0,1.072-0.869,1.942-1.941,1.942h-7.679V49.796   c0-0.792-0.643-1.435-1.435-1.435h-7.874c-0.793,0-1.436,0.643-1.436,1.435v14.338H36.95c-1.072,0-1.942-0.87-1.942-1.942v-9.38   l-2.414,2.414C31.457,56.363,29.613,56.363,28.476,55.226z M80.738,3.713v92.574c0,2.051-1.662,3.713-3.712,3.713H22.974   c-2.05,0-3.712-1.662-3.712-3.713V3.713C19.262,1.662,20.924,0,22.974,0h54.053C79.076,0,80.738,1.662,80.738,3.713z M42.046,9.607   h15.908V9.345c0-2.052-1.661-3.714-3.712-3.714H45.76c-2.05,0-3.714,1.662-3.714,3.714V9.607z M54.829,91.139   c0-2.668-2.161-4.829-4.829-4.829c-2.668,0-4.83,2.161-4.83,4.829c0,2.667,2.162,4.83,4.83,4.83   C52.668,95.969,54.829,93.806,54.829,91.139z M75.625,15.372H24.376v65.545h51.249V15.372z M47.217,54.995   c-0.769,0-1.391,0.622-1.391,1.392c0,0.769,0.623,1.391,1.391,1.391s1.392-0.622,1.392-1.391   C48.608,55.617,47.985,54.995,47.217,54.995z"/></g><text x="0" y="115" fill="#000000" font-size="5px" font-weight="bold" font-family="'Helvetica Neue', Helvetica, Arial-Unicode, Arial, Sans-serif">Created by b farias</text><text x="0" y="120" fill="#000000" font-size="5px" font-weight="bold" font-family="'Helvetica Neue', Helvetica, Arial-Unicode, Arial, Sans-serif">from the Noun Project</text></svg>