<?xml version="1.0" encoding="UTF-8"?>
<svg id="Capa_2" data-name="Capa 2" xmlns="http://www.w3.org/2000/svg" xmlns:xlink="http://www.w3.org/1999/xlink" viewBox="0 0 81.5 81.49">
  <defs>
    <style>
      .cls-1 {
        fill: url(#linear-gradient);
      }
    </style>
    <linearGradient id="linear-gradient" x1="0" y1="40.75" x2="81.5" y2="40.75" gradientUnits="userSpaceOnUse">
      <stop offset="0" stop-color="#b68f52"/>
      <stop offset=".23" stop-color="#bb9759"/>
      <stop offset="1" stop-color="#ccaf6f"/>
    </linearGradient>
  </defs>
  <g id="Capa_1-2" data-name="Capa 1">
    <path class="cls-1" d="M62.69,19.08h10.89c1.19,0,2.16-.97,2.16-2.16v-7.14c0-1.19-.97-2.16-2.16-2.16h-10.9c-1.19,0-2.16.97-2.16,2.17v7.14c0,1.19.97,2.16,2.16,2.16ZM73.59,17.42h-10.9c-.27,0-.5-.22-.5-.5v-6.66l4.54,3.9c.41.35.91.53,1.41.53s1-.18,1.41-.53l4.54-3.9v6.66c0,.27-.22.5-.5.5h0ZM63.61,9.28h9.07l-4.21,3.62c-.19.16-.46.16-.65,0l-4.21-3.62ZM73.46,55.9c2.21-4.76,3.35-9.85,3.35-15.16s-1.13-10.4-3.34-15.16c4.72-2.06,8.03-6.77,8.03-12.24,0-7.36-5.99-13.35-13.35-13.35-5.47,0-10.18,3.31-12.24,8.03-4.76-2.21-9.85-3.34-15.16-3.34s-10.4,1.13-15.16,3.34C23.53,3.31,18.82,0,13.36,0,5.99,0,0,5.99,0,13.35,0,18.82,3.31,23.53,8.03,25.59c-2.21,4.76-3.35,9.85-3.35,15.16s1.13,10.4,3.34,15.16c-4.72,2.06-8.02,6.77-8.02,12.24,0,7.36,5.99,13.35,13.35,13.35,5.47,0,10.18-3.31,12.24-8.03,4.76,2.21,9.85,3.34,15.16,3.34s10.4-1.13,15.16-3.34c2.06,4.72,6.77,8.03,12.24,8.03,7.36,0,13.35-5.99,13.35-13.35,0-5.47-3.31-10.18-8.03-12.24ZM68.14,1.66c6.45,0,11.69,5.25,11.69,11.69s-5.24,11.69-11.69,11.69-11.69-5.25-11.69-11.69,5.25-11.69,11.69-11.69ZM1.66,13.35C1.66,6.91,6.91,1.66,13.35,1.66s11.69,5.24,11.69,11.69-5.24,11.69-11.69,11.69S1.66,19.8,1.66,13.35ZM14.18,63.85c1.5-.05,2.96-.21,4.38-.5.29,1.23.46,2.56.52,3.96h-4.9v-3.46ZM14.18,62.18v-5.54c1.62.5,3.04,2.41,3.94,5.09-1.27.25-2.59.4-3.94.45h0ZM12.52,56.65v5.54c-1.34-.04-2.66-.19-3.94-.44.89-2.68,2.32-4.59,3.94-5.09ZM12.52,63.85v3.46h-4.9c.05-1.4.23-2.73.52-3.96,1.42.29,2.89.45,4.38.5h0ZM5.96,67.31H1.7c.14-1.98.77-3.82,1.78-5.41.96.42,1.97.78,3.02,1.07-.3,1.34-.49,2.81-.54,4.35h0ZM5.96,68.97c.05,1.54.23,3,.54,4.35-1.05.29-2.05.64-3.02,1.07-1.01-1.59-1.64-3.43-1.78-5.41h4.25ZM7.62,68.97h4.9v3.46c-1.5.05-2.96.21-4.38.5-.28-1.23-.46-2.56-.52-3.96h0ZM12.52,74.1v5.54c-1.62-.5-3.04-2.41-3.94-5.09,1.28-.25,2.59-.4,3.94-.45h0ZM14.18,79.63v-5.54c1.34.04,2.66.19,3.94.44-.89,2.68-2.32,4.6-3.94,5.09ZM14.18,72.43v-3.46h4.9c-.05,1.4-.23,2.73-.52,3.96-1.42-.29-2.89-.45-4.38-.5h0ZM20.75,68.97h4.26c-.14,1.98-.77,3.82-1.78,5.41-.96-.42-1.97-.78-3.02-1.07.3-1.34.48-2.81.54-4.35h0ZM20.75,67.31c-.05-1.54-.23-3-.54-4.35,1.05-.29,2.05-.64,3.02-1.07,1.01,1.59,1.64,3.43,1.78,5.41h-4.25ZM19.75,61.36c-.52-1.61-1.23-3-2.07-4.07,1.76.7,3.3,1.82,4.52,3.23-.79.32-1.6.61-2.45.84h0ZM9.03,57.29c-.84,1.07-1.55,2.46-2.07,4.07-.84-.23-1.66-.51-2.45-.84,1.22-1.41,2.77-2.53,4.52-3.23h0ZM4.5,75.76c.79-.32,1.6-.61,2.45-.84.52,1.61,1.23,3,2.07,4.07-1.76-.71-3.3-1.82-4.52-3.23h0ZM17.68,78.99c.84-1.07,1.55-2.46,2.07-4.07.84.23,1.66.51,2.45.84-1.22,1.41-2.77,2.53-4.52,3.23h0ZM40.75,75.15c-5.11,0-10.01-1.1-14.59-3.25.35-1.2.55-2.45.55-3.76,0-7.36-5.99-13.36-13.35-13.36-1.31,0-2.57.2-3.76.55-2.15-4.58-3.25-9.48-3.25-14.59s1.1-10.01,3.25-14.59c1.2.35,2.45.55,3.76.55,7.36,0,13.35-5.99,13.35-13.35,0-1.3-.2-2.56-.55-3.76,4.58-2.15,9.48-3.25,14.59-3.25s10.01,1.1,14.59,3.25c-.35,1.2-.55,2.45-.55,3.76,0,7.36,5.99,13.35,13.36,13.35,1.3,0,2.57-.2,3.76-.55,2.15,4.58,3.25,9.48,3.25,14.59s-1.1,10.01-3.25,14.59c-1.2-.35-2.45-.55-3.76-.55-7.36,0-13.35,5.99-13.35,13.35,0,1.3.2,2.57.55,3.76-4.57,2.15-9.48,3.25-14.59,3.25h0ZM60.82,77.24c.69-3.46,3.77-6.06,7.32-6.12,3.55.06,6.62,2.66,7.32,6.12-2,1.61-4.55,2.59-7.32,2.59s-5.31-.97-7.32-2.59ZM76.83,75.93c-1.19-3.71-4.69-6.41-8.68-6.47h-.02c-3.99.06-7.49,2.75-8.68,6.47-1.86-2.07-3-4.8-3-7.79,0-6.45,5.25-11.69,11.69-11.69s11.69,5.25,11.69,11.69c0,2.99-1.14,5.72-3,7.79h0ZM68.14,59.38c-2.6,0-4.71,2.11-4.71,4.71s2.11,4.71,4.71,4.71,4.71-2.11,4.71-4.71-2.11-4.71-4.71-4.71ZM68.14,67.13c-1.68,0-3.05-1.37-3.05-3.05s1.37-3.05,3.05-3.05,3.05,1.37,3.05,3.05-1.37,3.05-3.05,3.05ZM19.53,15.31c.63-.36,1.01-1.02,1.01-1.75s-.38-1.38-1.01-1.75l-7.94-4.58c-.63-.36-1.38-.36-2.02,0s-1.01,1.02-1.01,1.75v9.16c0,.73.38,1.38,1.01,1.75.32.18.66.27,1.01.27s.69-.09,1.01-.27l7.94-4.58ZM18.69,13.87l-7.94,4.58c-.12.07-.23.07-.35,0-.12-.07-.18-.17-.18-.3v-9.16c0-.14.06-.24.18-.3.06-.04.12-.05.18-.05s.12.02.18.05l7.94,4.58c.12.07.18.17.18.3,0,.14-.05.24-.18.3h0ZM51.09,39.48l1.11-.74c.84-.56,1.21-1.56.95-2.54l-.65-2.42c-.26-.98-1.09-1.65-2.09-1.72l-1.34-.09-2.36-8.79c-.18-.68-.62-1.25-1.23-1.6-.61-.35-1.32-.45-2-.27-.68.18-1.25.62-1.6,1.23-.35.61-.45,1.32-.27,2l.15.56c-1.9,3.83-7.84,8.93-15.78,11.49l-2.94.79c-2.83.76-4.44,3.64-3.66,6.56.7,2.62,3.05,4.24,5.57,4.01l6.18,10.7c.43.75,1.14,1.29,1.98,1.51.28.07.57.11.85.11.56,0,1.12-.15,1.62-.43.75-.43,1.29-1.14,1.51-1.98.23-.84.11-1.72-.32-2.47l-5.11-8.87c7.05-.91,13.4.46,16.54,2.55l.15.56c.32,1.18,1.39,1.96,2.55,1.96.23,0,.45-.03.68-.09.68-.18,1.25-.62,1.6-1.23.35-.61.45-1.32.27-2l-2.36-8.79ZM50.3,33.71c.3.02.52.2.6.49l.65,2.42c.08.29-.02.56-.27.73l-.64.43-1.11-4.12.77.05ZM21,43.51c-.54-2.02.55-4.01,2.48-4.53l2.96-.79s.03,0,.04-.01c1.23-.39,2.4-.85,3.53-1.35l2.14,7.97c-1.23.13-2.48.32-3.73.59-.01,0-.03,0-.04,0l-2.96.79c-1.94.52-3.88-.66-4.41-2.68h0ZM35.34,56.23c.44.76.18,1.73-.58,2.17-.37.21-.79.27-1.21.16-.41-.11-.75-.37-.97-.74l-5.91-10.24,2.12-.57c.37-.08.74-.14,1.11-.21l5.44,9.43ZM33.83,44.66l-2.29-8.55c4.96-2.48,8.8-5.81,10.83-8.77l5.22,19.5c-3.24-1.54-8.23-2.51-13.77-2.18h0ZM51.74,49.44c-.13.23-.34.39-.59.46-.52.14-1.06-.17-1.2-.69l-6.72-25.09c-.07-.25-.03-.51.1-.74.13-.23.34-.39.59-.46.08-.02.17-.03.25-.03.17,0,.34.04.49.13.23.13.39.34.46.59l6.72,25.09c.07.25.03.51-.1.74h0ZM57.11,32.98l4.14-1.11c.45-.12.9.14,1.02.59.12.45-.14.9-.59,1.02l-4.14,1.11c-.07.02-.14.03-.21.03-.37,0-.7-.25-.8-.62-.12-.44.15-.9.59-1.02h0ZM61.06,41.59c-.15.27-.43.41-.72.41-.14,0-.29-.04-.41-.11l-3.71-2.14c-.4-.23-.54-.74-.3-1.14.23-.4.74-.54,1.14-.3l3.71,2.14c.4.23.54.74.3,1.14h0ZM54.82,30c-.15.27-.43.41-.72.41-.14,0-.29-.04-.41-.11-.4-.23-.54-.74-.3-1.14l2.14-3.71c.23-.4.74-.54,1.14-.3.4.23.54.74.3,1.14l-2.14,3.71Z"/>
  </g>
</svg>