<?xml version="1.0" encoding="UTF-8"?>
<svg id="Capa_2" data-name="Capa 2" xmlns="http://www.w3.org/2000/svg" xmlns:xlink="http://www.w3.org/1999/xlink" viewBox="0 0 90.94 96.56">
  <defs>
    <style>
      .cls-1 {
        fill: url(#linear-gradient);
        fill-rule: evenodd;
      }
    </style>
    <linearGradient id="linear-gradient" x1="0" y1="48.28" x2="90.94" y2="48.28" gradientUnits="userSpaceOnUse">
      <stop offset="0" stop-color="#b68f52"/>
      <stop offset=".23" stop-color="#bb9759"/>
      <stop offset="1" stop-color="#ccaf6f"/>
    </linearGradient>
  </defs>
  <g id="Capa_1-2" data-name="Capa 1">
    <path class="cls-1" d="M44.11,0h.43c9.07.13,16.38,7.52,16.38,16.62v2.57l2.23-1.29c2.09-1.2,4.33-1.91,6.58-2.14.77-.08,1.46.48,1.55,1.25.08.77-.48,1.46-1.25,1.55-1.87.19-3.73.77-5.46,1.78l-3.64,2.1v7.4l6.84-3.95c3.48-2,7.9-.87,10,2.52l.19.32v.02s.2.33.2.33c1.89,3.51.66,7.92-2.82,9.93l-28.39,16.39,6.41,3.7,25.19-14.54c6.54-3.78,8.82-12.09,5.17-18.66l-.2-.36h0s-.2-.35-.2-.35c-.1-.16-.2-.32-.3-.48-.43-.65-.25-1.52.4-1.95.65-.43,1.52-.25,1.95.4.12.19.24.38.36.58l.22.38v.02s.23.39.23.39c4.39,7.91,1.65,17.92-6.22,22.46l-2.23,1.29,2.23,1.29c7.91,4.56,10.65,14.65,6.16,22.58l-.16.28v.02s-.17.27-.17.27c-4.63,7.83-14.72,10.49-22.62,5.93l-2.23-1.29v2.57c0,9.13-7.36,16.54-16.47,16.62h-.66c-9.11-.09-16.46-7.5-16.46-16.62v-2.57l-2.23,1.29c-7.92,4.57-18.03,1.89-22.65-5.98l-.15-.26-.13-.23c-4.51-7.93-1.77-18.03,6.14-22.6l2.23-1.29-2.23-1.29C.45,42.45-2.3,32.46,2.08,24.55l.23-.39v-.02s.21-.35.21-.35c4.65-7.79,14.71-10.43,22.59-5.88l2.23,1.29v-2.57C27.34,7.53,34.64.14,43.71,0h.4ZM44.12,2.81h-.38c-7.53.11-13.6,6.25-13.6,13.81v4.2l6.41,3.7v-7.9c0-4.02,3.2-7.28,7.18-7.4h.38s.03,0,.03,0c.06,0,.36,0,.45,0,3.95.16,7.11,3.41,7.11,7.4v16.64l6.41,3.7v-20.34c0-7.56-6.07-13.7-13.61-13.81h-.37ZM44.12,12.03h-.3c-2.47.08-4.45,2.1-4.45,4.59v9.52l4.76,2.75,4.76-2.75v-9.52c0-2.48-1.96-4.49-4.41-4.59-.07,0-.35,0-.35,0h0ZM12.73,66.4h0s.16.28.16.28c1.3,2.1,4.04,2.79,6.2,1.55l8.25-4.76v-5.49l-4.76-2.75-8.25,4.76c-2.15,1.24-2.92,3.96-1.76,6.14l.16.27ZM36.55,47.16l-1.95,1.12,1.95,1.12v-2.25ZM56.15,60.72l1.95,1.12v-2.25l-1.95,1.12ZM46.94,30.52l1.95,1.12v-2.25l-1.95,1.12ZM51.7,49.41l1.95-1.12-1.95-1.12v2.25ZM44.12,53.78l4.76-2.75v-5.49l-4.76-2.75-4.76,2.75v5.49l4.76,2.75ZM44.12,44.59c2.04,0,3.69,1.65,3.69,3.69s-1.65,3.69-3.69,3.69-3.69-1.65-3.69-3.69,1.65-3.69,3.69-3.69ZM44.12,47.41c-.48,0-.88.39-.88.88s.39.88.88.88.88-.39.88-.88-.39-.88-.88-.88ZM83.49,71.04l.16-.27c3.73-6.59,1.45-14.97-5.12-18.76l-3.64-2.1-6.41,3.7,6.84,3.95c3.46,2,4.7,6.38,2.84,9.88-.04.06-.18.31-.21.36l-.02.03s-.19.32-.23.39c-2.11,3.34-6.5,4.44-9.95,2.45l-35.96-20.76-6.41,3.7,39.16,22.61c6.56,3.79,14.94,1.58,18.79-4.93l.14-.25ZM32.09,35.84l-1.95-1.12v2.25l1.95-1.12ZM4.75,25.55h0s-.2.37-.2.37c-3.64,6.57-1.35,14.87,5.18,18.65l3.64,2.1,6.41-3.7-6.84-3.95c-3.42-1.97-4.67-6.27-2.91-9.75.05-.1.27-.48.27-.48l.02-.04s.21-.36.27-.45c2.13-3.3,6.49-4.38,9.93-2.4l35.96,20.76,6.41-3.7L23.7,20.35c-6.55-3.78-14.9-1.59-18.77,4.88l-.18.32ZM75.51,66.41h0s.16-.29.16-.29c1.15-2.18.39-4.89-1.76-6.13l-8.25-4.76-4.76,2.75v5.49l8.25,4.76c2.14,1.23,4.86.55,6.17-1.51.04-.06.18-.31.18-.31h0ZM27.34,33.1l-8.25-4.77c-2.13-1.23-4.84-.56-6.16,1.49-.04.06-.18.3-.2.34,0,0-.16.29-.2.37-1.09,2.16-.32,4.82,1.8,6.04l8.25,4.76,4.76-2.75v-5.32c0-.05,0-.11,0-.16h0ZM41.31,66.05l-1.95-1.12v2.25l1.95-1.12ZM44.12,84.53h.28c2.48-.06,4.48-2.09,4.48-4.59v-9.52l-4.76-2.75-4.76,2.75v9.52c0,2.49,1.99,4.52,4.46,4.59h.29ZM4.74,71l.14.25c3.84,6.54,12.24,8.77,18.82,4.97l3.64-2.1v-7.4l-6.84,3.95c-3.47,2-7.89.88-9.99-2.5l-.21-.34v-.03s-.21-.34-.21-.34c-1.88-3.51-.64-7.9,2.83-9.9l28.39-16.39-6.41-3.7-25.18,14.54c-6.58,3.8-8.85,12.19-5.11,18.78l.13.22ZM75.51,30.15h0s-.15-.26-.15-.26c-1.3-2.1-4.04-2.8-6.2-1.56l-8.25,4.76v5.49l4.76,2.75,8.25-4.76c2.16-1.25,2.92-3.98,1.75-6.16l-.15-.27ZM44.12,93.75h.3c7.57-.07,13.68-6.23,13.68-13.81v-4.2l-6.41-3.7v7.9c0,4.03-3.22,7.31-7.23,7.4h-.35s-.37,0-.37,0c-3.99-.11-7.2-3.38-7.2-7.4v-16.64l-6.41-3.7v20.34c0,7.58,6.11,13.74,13.67,13.81h.3ZM81.29,2.47l.64,2.64c.64,2.61,2.68,4.65,5.29,5.29l2.64.64c.63.15,1.07.72,1.07,1.37s-.45,1.21-1.07,1.37l-2.64.64c-2.61.63-4.65,2.68-5.29,5.29l-.64,2.64c-.15.63-.72,1.07-1.37,1.07s-1.21-.44-1.37-1.07l-.64-2.64c-.63-2.61-2.68-4.66-5.29-5.29l-2.64-.64c-.63-.16-1.08-.72-1.08-1.37s.45-1.21,1.08-1.37l2.64-.64c2.61-.64,4.66-2.68,5.29-5.29l.64-2.64c.16-.63.72-1.07,1.37-1.07s1.21.45,1.37,1.07ZM75.3,12.41c2.01.98,3.64,2.61,4.62,4.62.98-2.01,2.61-3.64,4.62-4.62-2.01-.98-3.64-2.61-4.62-4.62-.98,2.01-2.61,3.64-4.62,4.62Z"/>
  </g>
</svg>