<?xml version="1.0" encoding="UTF-8"?>
<svg id="Capa_2" data-name="Capa 2" xmlns="http://www.w3.org/2000/svg" xmlns:xlink="http://www.w3.org/1999/xlink" viewBox="0 0 91.9 100">
  <defs>
    <style>
      .cls-1 {
        fill: url(#linear-gradient);
      }
    </style>
    <linearGradient id="linear-gradient" x1="0" y1="50" x2="91.9" y2="50" gradientUnits="userSpaceOnUse">
      <stop offset="0" stop-color="#b68f52"/>
      <stop offset=".23" stop-color="#bb9759"/>
      <stop offset="1" stop-color="#ccaf6f"/>
    </linearGradient>
  </defs>
  <g id="Capa_1-2" data-name="Capa 1">
    <path class="cls-1" d="M44.14,0C41.59,0,39.51,2.08,39.51,4.63v26.31H4.61c-2.54,0-4.61,2.07-4.61,4.6v33.86c0,2.53,2.07,4.6,4.61,4.6h4.46v5.21c0,1,.64,1.83,1.45,2.16.8.33,1.84.2,2.55-.51l6.88-6.86h22.84v16.68c0,2.03,1.67,3.69,3.7,3.69h20.41l5.08,5.06c.6.6,1.49.72,2.18.43s1.23-1,1.23-1.85v-3.65h3.1c2.03,0,3.69-1.66,3.69-3.69v-25.34c0-2.03-1.66-3.69-3.69-3.69h-26.54v-18.2h19.85l6.94,6.93h0s0,0,0,0c.71.71,1.75.84,2.56.5.81-.34,1.45-1.16,1.45-2.17v-5.27h4.51c2.55,0,4.64-2.07,4.64-4.62V4.63c0-2.55-2.08-4.63-4.63-4.63h-43.12ZM44.14,1.95h43.12c1.5,0,2.69,1.18,2.69,2.68v34.18c0,1.5-1.18,2.68-2.69,2.68h-5.49c-.54,0-.97.44-.98.98v6.24c0,.21-.1.3-.25.37s-.28.07-.43-.09l-7.23-7.21h0c-.18-.18-.43-.29-.7-.29h-20.25v-5.95c0-2.53-2.07-4.6-4.6-4.6h-5.88V4.63c0-1.5,1.18-2.68,2.69-2.68h0ZM71.65,9.19c-2.11,0-4.23.81-5.84,2.41l-.11.11-.11-.11c-3.23-3.21-8.46-3.21-11.69,0-3.23,3.21-3.23,8.43,0,11.64l.8.79,8.93,8.88c1.14,1.13,3,1.13,4.14,0l8.93-8.88.8-.79c3.23-3.21,3.23-8.43,0-11.64-1.61-1.61-3.74-2.41-5.85-2.41h0ZM59.75,11.13c1.61,0,3.23.62,4.47,1.86l.8.79h0c.38.38,1,.38,1.38,0l.8-.79c1.24-1.23,2.85-1.84,4.46-1.84s3.23.61,4.47,1.84c2.48,2.47,2.48,6.39,0,8.86l-.79.79-8.94,8.88c-.39.38-.99.38-1.38,0l-8.94-8.88-.8-.79c-2.48-2.47-2.48-6.39,0-8.86,1.24-1.23,2.86-1.86,4.47-1.86h0ZM4.61,32.88h42.73c1.49,0,2.65,1.17,2.65,2.65v26.1h-3.51c-2.03,0-3.7,1.66-3.7,3.69v6.72h-23.24c-.26,0-.5.1-.69.28l-7.17,7.14c-.15.15-.27.15-.42.09-.14-.06-.24-.14-.24-.36v-6.18h0c0-.54-.44-.97-.97-.97h-5.44c-1.49,0-2.65-1.17-2.65-2.65v-33.86c0-1.48,1.16-2.65,2.65-2.65h0ZM25.3,36.76c-1.18,0-2.26.68-2.76,1.75l-3.95,8.42h-5.84c-1.25,0-2.29,1.04-2.29,2.29v14.97c0,1.25,1.04,2.29,2.29,2.29h21.87c2.06,0,3.86-1.42,4.34-3.42l2.87-12.08c.49-2.05-1.11-4.06-3.21-4.06h-9.43v-7.52c0-1.46-1.2-2.66-2.66-2.66h-1.23ZM25.3,38.71h1.23c.41,0,.71.31.71.71v8.5h0c0,.54.44.97.97.97h10.4c.89,0,1.52.79,1.32,1.65l-2.87,12.09c-.27,1.13-1.27,1.91-2.44,1.91h-14.43v-16.41l4.12-8.79c.18-.38.56-.63.99-.63h0ZM12.75,48.89h5.48v15.65h-5.48c-.2,0-.34-.14-.34-.34v-14.97c0-.2.14-.34.34-.34h0ZM46.48,63.59h32c.98,0,1.74.76,1.74,1.74v25.34c0,.98-.76,1.74-1.74,1.74h-4.07,0c-.26,0-.51.1-.7.28-.18.18-.29.43-.29.69v4.63c0,.06,0,.03-.03.04-.03.01,0,.03-.05-.01l-5.37-5.35h0c-.18-.18-.43-.28-.69-.28h-20.82c-.98,0-1.74-.76-1.74-1.74v-25.34c0-.98.76-1.74,1.74-1.74h0ZM59.29,70.03c-.26,0-.51.11-.69.29-.18.18-.29.43-.28.69v2.84h-2.85c-.54,0-.97.44-.97.98s.44.97.97.97h2.85v4.4h-2.85c-.54,0-.97.44-.97.98s.44.97.97.98h2.85v2.84h0c0,.26.1.51.28.69.18.18.43.29.69.29s.51-.1.7-.29c.18-.19.29-.44.29-.7v-2.84h4.41v2.84c0,.26.1.51.28.69s.43.29.69.29.51-.1.7-.29.29-.43.29-.7v-2.84h2.85c.54,0,.98-.44.98-.98s-.44-.97-.98-.98h-2.85v-4.4h2.85c.54,0,.98-.43.98-.97s-.44-.98-.98-.98h-2.85v-2.84c0-.26-.1-.51-.29-.7s-.43-.29-.7-.29-.51.11-.69.29-.29.43-.28.69v2.84h-4.41v-2.84c0-.26-.1-.51-.29-.7-.18-.18-.43-.29-.7-.29ZM60.27,75.79h4.41v4.4h-4.41v-4.4Z"/>
  </g>
</svg>