<?xml version="1.0" encoding="UTF-8"?>
<svg id="Capa_2" data-name="Capa 2" xmlns="http://www.w3.org/2000/svg" xmlns:xlink="http://www.w3.org/1999/xlink" viewBox="0 0 89 89">
  <defs>
    <style>
      .cls-1 {
        fill: url(#linear-gradient-2);
      }

      .cls-2 {
        fill: url(#linear-gradient-4);
      }

      .cls-3 {
        fill: url(#linear-gradient-3);
      }

      .cls-4 {
        fill: url(#linear-gradient-5);
      }

      .cls-5 {
        fill: url(#linear-gradient-7);
      }

      .cls-6 {
        fill: url(#linear-gradient-6);
      }

      .cls-7 {
        fill: url(#linear-gradient);
      }
    </style>
    <linearGradient id="linear-gradient" x1="0" y1="44.5" x2="89" y2="44.5" gradientUnits="userSpaceOnUse">
      <stop offset="0" stop-color="#b68f52"/>
      <stop offset=".23" stop-color="#bb9759"/>
      <stop offset="1" stop-color="#ccaf6f"/>
    </linearGradient>
    <linearGradient id="linear-gradient-2" x1="13.56" y1="21.17" x2="19.34" y2="21.17" xlink:href="#linear-gradient"/>
    <linearGradient id="linear-gradient-3" x1="9.09" y1="11.34" x2="40.76" y2="11.34" xlink:href="#linear-gradient"/>
    <linearGradient id="linear-gradient-4" x1="49.77" y1="11.33" x2="58.1" y2="11.33" xlink:href="#linear-gradient"/>
    <linearGradient id="linear-gradient-5" x1="60.68" y1="11.33" x2="69.01" y2="11.33" xlink:href="#linear-gradient"/>
    <linearGradient id="linear-gradient-6" x1="71.58" y1="11.33" x2="79.92" y2="11.33" xlink:href="#linear-gradient"/>
    <linearGradient id="linear-gradient-7" x1="16.53" y1="54.34" x2="72.47" y2="54.34" xlink:href="#linear-gradient"/>
  </defs>
  <g id="Capa_1-2" data-name="Capa 1">
    <path class="cls-7" d="M83.73,0H5.28C2.37,0,0,2.37,0,5.28v78.45c0,2.91,2.37,5.27,5.28,5.27h78.45c2.91,0,5.27-2.36,5.27-5.27V5.28c0-2.91-2.36-5.27-5.27-5.28ZM83.73,86H5.28c-1.26,0-2.28-1.01-2.28-2.27V22.67h7.06c.83,0,1.5-.67,1.5-1.5s-.67-1.5-1.5-1.5H3V5.28c0-1.26,1.02-2.28,2.28-2.28h78.45c1.26,0,2.27,1.02,2.27,2.28v14.39H22.84c-.83,0-1.5.67-1.5,1.5s.67,1.5,1.5,1.5h63.16v61.06c0,1.25-1.02,2.27-2.27,2.27Z"/>
    <path class="cls-1" d="M19.34,21.17c0-.83-.67-1.5-1.5-1.5h-2.78c-.83,0-1.5.67-1.5,1.5s.67,1.5,1.5,1.5h2.78c.83,0,1.5-.67,1.5-1.5Z"/>
    <path class="cls-3" d="M40.76,11.33c0-2.3-1.86-4.16-4.16-4.16H13.25c-2.3,0-4.16,1.87-4.16,4.17,0,2.3,1.86,4.16,4.16,4.16h23.34c2.3,0,4.16-1.87,4.16-4.17ZM12.09,11.33c0-.64.52-1.16,1.16-1.16h23.35c.64,0,1.17.52,1.17,1.16s-.52,1.17-1.17,1.17H13.25c-.64,0-1.16-.52-1.17-1.17Z"/>
    <path class="cls-2" d="M53.94,15.5c2.3,0,4.17-1.87,4.17-4.17s-1.87-4.17-4.17-4.17-4.17,1.87-4.17,4.17c0,2.3,1.87,4.16,4.17,4.17ZM53.94,10.17c.64.02,1.15.56,1.13,1.2-.02.62-.51,1.11-1.13,1.13h0c-.64.02-1.18-.49-1.2-1.13-.02-.64.49-1.18,1.13-1.2.02,0,.05,0,.07,0Z"/>
    <path class="cls-4" d="M64.84,15.5c2.3,0,4.17-1.87,4.17-4.17s-1.87-4.17-4.17-4.17-4.17,1.87-4.17,4.17c0,2.3,1.87,4.16,4.17,4.17ZM64.84,10.17c.64.02,1.15.56,1.13,1.2-.02.62-.51,1.11-1.13,1.13h0c-.64.02-1.18-.49-1.2-1.13s.49-1.18,1.13-1.2c.02,0,.05,0,.07,0Z"/>
    <path class="cls-6" d="M75.75,15.5c2.3,0,4.17-1.87,4.17-4.17s-1.87-4.17-4.17-4.17-4.17,1.87-4.17,4.17c0,2.3,1.87,4.16,4.17,4.17ZM75.75,10.17c.64.02,1.15.56,1.13,1.2-.02.62-.51,1.11-1.13,1.13h0c-.64.02-1.18-.49-1.2-1.13s.49-1.18,1.13-1.2c.02,0,.05,0,.07,0Z"/>
    <path class="cls-5" d="M72.47,54.33c0-5.63-1.71-11.13-4.91-15.76h0c-.08-.18-.18-.33-.32-.45-5.15-7.25-13.44-11.61-22.32-11.75-.14,0-.28,0-.42,0s-.29,0-.36,0h-.06c-8.87.15-17.15,4.5-22.3,11.73-.14.13-.25.29-.33.47v.02c-3.2,4.63-4.91,10.13-4.91,15.75h0c0,5.63,1.71,11.13,4.91,15.76v.02c.08.16.19.3.32.43,5.14,7.25,13.44,11.62,22.33,11.75h0s.05,0,.08,0,.03,0,.05,0c.1,0,.19,0,.29,0,.14,0,.29,0,.36,0h.06c8.88-.15,17.17-4.51,22.32-11.75.13-.12.24-.27.32-.43,0-.01,0-.02.01-.03,3.19-4.63,4.9-10.13,4.9-15.75h0ZM65.61,67.61c-2.4-.9-4.88-1.58-7.4-2.03.73-3.2,1.13-6.47,1.22-9.75h10c-.25,4.19-1.57,8.24-3.82,11.78ZM19.58,55.83h10c.09,3.28.49,6.55,1.22,9.75-2.53.44-5.01,1.12-7.41,2.03-2.25-3.54-3.56-7.6-3.82-11.78ZM23.39,41.06c2.4.9,4.88,1.58,7.41,2.03-.72,3.2-1.13,6.47-1.22,9.75h-10c.25-4.18,1.56-8.24,3.81-11.78ZM55.23,65.13c-3.17-.43-6.37-.66-9.58-.69v-8.6h10.76c-.08,3.13-.48,6.24-1.19,9.29ZM33.77,65.13c-.71-3.05-1.1-6.16-1.19-9.29h10.07v8.61c-2.97.06-5.94.28-8.88.68ZM33.77,43.54c2.95.4,5.91.63,8.88.69v8.6h-10.07c.08-3.13.48-6.24,1.19-9.29h0ZM45.65,52.83v-8.59c3.2-.04,6.4-.27,9.57-.7.71,3.05,1.1,6.16,1.19,9.29h-10.76ZM45.65,41.24v-11.74c3.48.77,6.78,4.95,8.78,11.13-2.91.38-5.85.58-8.78.62h0ZM42.65,29.69v11.54c-2.71-.06-5.41-.26-8.1-.61,1.87-5.77,4.87-9.8,8.1-10.93h0ZM42.65,67.45v11.55c-3.26-1.11-6.21-5.09-8.1-10.95,2.69-.35,5.39-.55,8.1-.6h0ZM45.65,79.18v-11.75c2.94.03,5.87.24,8.79.61-2.02,6.27-5.26,10.38-8.79,11.13h0ZM59.42,52.83c-.08-3.28-.49-6.55-1.22-9.75,2.53-.44,5.01-1.12,7.41-2.03,2.25,3.54,3.56,7.59,3.81,11.78h-10.01ZM63.79,38.53c-2.07.72-4.19,1.26-6.35,1.64-.96-3.42-2.59-6.62-4.78-9.42,4.35,1.53,8.21,4.22,11.13,7.79h0ZM36.33,30.76c-2.19,2.8-3.81,5.99-4.77,9.41-2.16-.37-4.28-.92-6.35-1.63,2.93-3.56,6.77-6.25,11.12-7.77ZM25.21,70.14c2.07-.71,4.19-1.26,6.35-1.64.96,3.42,2.59,6.62,4.78,9.42-4.35-1.52-8.2-4.22-11.13-7.78ZM52.67,77.9c2.19-2.79,3.81-5.99,4.77-9.4,2.15.37,4.28.92,6.34,1.64-2.92,3.56-6.77,6.25-11.11,7.77Z"/>
  </g>
</svg>